name D:\school\WTK\thesis\model\3dpredictsim\Results\MidTarsalJoint\Fal_s1_bCst_PF_Natali2010_ls148_MT_nl_fitted_Tmtp_ig24_kmtp5.mot
datacolumns 128
datarows 4
range 1.13815152 1.17229607
endheader
time	pelvis_tilt	pelvis_list	pelvis_rotation	pelvis_tx	pelvis_ty	pelvis_tz	hip_flexion_l	hip_adduction_l	hip_rotation_l	hip_flexion_r	hip_adduction_r	hip_rotation_r	knee_angle_l	knee_angle_r	ankle_angle_l	ankle_angle_r	subtalar_angle_l	subtalar_angle_r	tmt_angle_l	tmt_angle_r	mtp_angle_l	mtp_angle_r	lumbar_extension	lumbar_bending	lumbar_rotation	arm_flex_l	arm_add_l	arm_rot_l	arm_flex_r	arm_add_r	arm_rot_r	elbow_flex_l	elbow_flex_r	pro_sup_l	pro_sup_r	glut_med1_l/activation	glut_med2_l/activation	glut_med3_l/activation	glut_min1_l/activation	glut_min2_l/activation	glut_min3_l/activation	semimem_l/activation	semiten_l/activation	bifemlh_l/activation	bifemsh_l/activation	sar_l/activation	add_long_l/activation	add_brev_l/activation	add_mag1_l/activation	add_mag2_l/activation	add_mag3_l/activation	tfl_l/activation	pect_l/activation	grac_l/activation	glut_max1_l/activation	glut_max2_l/activation	glut_max3_l/activation	iliacus_l/activation	psoas_l/activation	quad_fem_l/activation	gem_l/activation	peri_l/activation	rect_fem_l/activation	vas_med_l/activation	vas_int_l/activation	vas_lat_l/activation	med_gas_l/activation	lat_gas_l/activation	soleus_l/activation	tib_post_l/activation	flex_dig_l/activation	flex_hal_l/activation	tib_ant_l/activation	per_brev_l/activation	per_long_l/activation	per_tert_l/activation	ext_dig_l/activation	ext_hal_l/activation	ercspn_l/activation	intobl_l/activation	extobl_l/activation	glut_med1_r/activation	glut_med2_r/activation	glut_med3_r/activation	glut_min1_r/activation	glut_min2_r/activation	glut_min3_r/activation	semimem_r/activation	semiten_r/activation	bifemlh_r/activation	bifemsh_r/activation	sar_r/activation	add_long_r/activation	add_brev_r/activation	add_mag1_r/activation	add_mag2_r/activation	add_mag3_r/activation	tfl_r/activation	pect_r/activation	grac_r/activation	glut_max1_r/activation	glut_max2_r/activation	glut_max3_r/activation	iliacus_r/activation	psoas_r/activation	quad_fem_r/activation	gem_r/activation	peri_r/activation	rect_fem_r/activation	vas_med_r/activation	vas_int_r/activation	vas_lat_r/activation	med_gas_r/activation	lat_gas_r/activation	soleus_r/activation	tib_post_r/activation	flex_dig_r/activation	flex_hal_r/activation	tib_ant_r/activation	per_brev_r/activation	per_long_r/activation	per_tert_r/activation	ext_dig_r/activation	ext_hal_r/activation	ercspn_r/activation	intobl_r/activation	extobl_r/activation	
          1.13815152	         -2.93017613	         -2.00932765	          5.41246354	          1.42268941	          0.91884376	         -0.00247328	        -16.64299725	         -0.86223858	          7.13359326	         29.45815222	          3.38196813	         -2.47036315	         -8.64614285	        -11.36035345	         -2.73544729	          5.49946373	          9.61449992	         -4.19710520	          4.72655046	          0.46086737	         15.94635752	         -1.17692434	         -2.21742554	          0.43001988	         -2.01507034	          4.96649906	        -13.45875958	         16.87104897	         -4.73436447	        -13.45416904	          7.10352841	         35.14846019	         16.09271645	         86.51662706	         86.51662706	          0.26381572	          0.10016291	          0.06886828	          0.28450791	          0.18806289	          0.10200117	          0.05000133	          0.05000021	          0.05000014	          0.05605946	          0.10801428	          0.10458073	          0.12634871	          0.05000175	          0.05000257	          0.05000077	          0.30687748	          0.10472750	          0.05000148	          0.05000090	          0.05000063	          0.05000067	          0.39368353	          0.60020236	          0.05000012	          0.05000046	          0.05000293	          0.25686730	          0.05000094	          0.05000088	          0.05000094	          0.26607574	          0.35715213	          0.31293646	          0.25543531	          0.24763113	          0.32280525	          0.05000002	          0.05948442	          0.10949330	          0.05000012	          0.05000003	          0.05000013	          0.05000002	          0.05000078	          0.07132870	          0.05948459	          0.05948462	          0.05000009	          0.05948471	          0.05948468	          0.05948382	          0.16396674	          0.08599342	          0.19102596	          0.05188466	          0.05000013	          0.17498268	          0.34598461	          0.10665884	          0.24315265	          0.11097283	          0.05000015	          0.05003403	          0.14707874	          0.05000034	          0.05000042	          0.13570028	          0.05948478	          0.05633448	          0.38474063	          0.30059512	          0.13169280	          0.05000025	          0.11786966	          0.11450020	          0.10464222	          0.06944033	          0.07298249	          0.06332050	          0.05000004	          0.05000153	          0.05000041	          0.51598238	          0.24432175	          0.16313443	          0.22563413	          0.47303181	          0.23097473	          0.05921358	          0.10711668	          0.08867407	
          1.14953304	         -2.92648832	         -2.10269492	          5.66361423	          1.43998687	          0.91798557	         -0.00226176	        -16.42350459	         -1.15505094	          6.94988863	         28.79792953	          3.79328282	         -2.23888391	        -10.73009038	        -11.76990956	         -3.41794907	          4.85631354	         10.67361667	         -4.57923857	          4.07442145	          0.34033008	         17.49981729	         -1.22480864	         -2.01215606	          0.64207524	         -2.08408764	          4.62605239	        -13.47196059	         17.14246398	         -5.63378587	        -13.45376445	          6.81627408	         36.35081039	         15.74329915	         86.51662706	         86.51662706	          0.22175134	          0.08419235	          0.05788767	          0.23914429	          0.15807703	          0.08573751	          0.05000349	          0.05000118	          0.05000244	          0.05000012	          0.09079192	          0.20063464	          0.11401070	          0.08423117	          0.05948619	          0.05948522	          0.25794714	          0.08804264	          0.05006674	          0.05012985	          0.05946659	          0.05948507	          0.33091221	          0.54874835	          0.05948565	          0.05948587	          0.05000060	          0.21591082	          0.11421420	          0.13759082	          0.13776888	          0.22365096	          0.30020558	          0.26303992	          0.21470716	          0.20814743	          0.27133531	          0.05000003	          0.05000017	          0.11902153	          0.05000014	          0.05000006	          0.05000019	          0.07025022	          0.07076808	          0.06108452	          0.05000001	          0.05000005	          0.10644619	          0.05000011	          0.05000010	          0.05000008	          0.13782294	          0.07228217	          0.16056762	          0.05000095	          0.05952017	          0.14708243	          0.31984379	          0.34463718	          0.22552648	          0.11554888	          0.05000033	          0.08422195	          0.16165810	          0.05001549	          0.10384819	          0.13761420	          0.05000027	          0.05000100	          0.60245828	          0.25266640	          0.11069496	          0.05948478	          0.12746998	          0.13738122	          0.10945831	          0.06766347	          0.07076811	          0.06127944	          0.05948469	          0.05000228	          0.05948434	          0.49544757	          0.27210996	          0.21043587	          0.18965795	          0.44146021	          0.19414674	          0.05000001	          0.09003733	          0.07453533	
          1.16091455	         -2.91747900	         -2.19979995	          5.88251793	          1.45758847	          0.91709490	         -0.00207431	        -16.15429339	         -1.44402859	          6.75573584	         27.98684461	          4.08018260	         -1.97657766	        -12.88786956	        -12.23525376	         -4.17567486	          4.32352266	         11.67384554	         -4.96706498	          3.19011629	          0.12636416	         19.11259365	         -1.20499573	         -1.78430333	          0.86274262	         -2.14154277	          4.19961202	        -13.48289919	         17.32020759	         -6.55436260	        -13.46409890	          6.60361026	         37.55166588	         15.42805590	         86.51662706	         86.51662706	          0.35970242	          0.07076825	          0.05000029	          0.33764094	          0.13287238	          0.07206705	          0.05000156	          0.05000016	          0.05000012	          0.05000068	          0.07631586	          0.16864426	          0.09583225	          0.07080091	          0.05000165	          0.05000066	          0.25937171	          0.07400863	          0.05000154	          0.05000147	          0.05000077	          0.05000075	          0.27814956	          0.50447628	          0.05000098	          0.05000163	          0.05000102	          0.18148469	          0.09600324	          0.11565255	          0.11580221	          0.18799066	          0.25233893	          0.22109919	          0.18047293	          0.17495919	          0.22807198	          0.06583152	          0.09401288	          0.14650942	          0.05000024	          0.10828236	          0.05000054	          0.06565448	          0.05948438	          0.05134484	          0.25783640	          0.26652762	          0.28901993	          0.45984302	          0.28226300	          0.20933262	          0.11887251	          0.06075748	          0.13496585	          0.05276083	          0.05003028	          0.12363072	          0.26884593	          0.28968615	          0.18956730	          0.11473463	          0.05000046	          0.07079342	          0.13588247	          0.13419791	          0.11952340	          0.11567223	          0.05002798	          0.05000053	          0.50639860	          0.21237979	          0.23433113	          0.05000022	          0.10714552	          0.11547646	          0.09200572	          0.05687483	          0.05948446	          0.05317997	          0.05000016	          0.05000034	          0.05000046	          0.56937963	          0.35763171	          0.17688335	          0.37639673	          0.51821298	          0.16319150	          0.06707963	          0.10982057	          0.06265096	
          1.17229607	         -2.90512186	         -2.28560699	          6.06462221	          1.47527440	          0.91620610	         -0.00185668	        -15.80073126	         -1.71520753	          6.58083083	         27.11736045	          4.32947158	         -1.71971453	        -15.15943127	        -12.62446521	         -4.93616886	          3.78958679	         12.63082289	         -5.35851187	          2.00718666	          0.22276730	         20.75667017	         -1.18152882	         -1.55735511	          1.07454004	         -2.18825646	          3.72749810	        -13.50183031	         17.43321455	         -7.44787107	        -13.47483281	          6.46660430	         38.72601761	         15.11983704	         86.51662706	         86.51662706	          0.30234946	          0.05948457	          0.05000011	          0.28380553	          0.11168644	          0.06057627	          0.05000141	          0.05000015	          0.05000016	          0.05000008	          0.06414769	          0.16735659	          0.16262280	          0.05951276	          0.05007103	          0.10911804	          0.21801606	          0.06220933	          0.05000057	          0.05000279	          0.05000191	          0.05000157	          0.23379968	          0.43092345	          0.05000022	          0.05000075	          0.05000013	          0.15254765	          0.10712826	          0.10120509	          0.10016345	          0.15801625	          0.21210445	          0.18584576	          0.15169722	          0.14706268	          0.19170681	          0.14739612	          0.15114160	          0.12315220	          0.06469109	          0.18563099	          0.07730293	          0.08287046	          0.05000001	          0.05000003	          0.35778639	          0.36367226	          0.39125388	          0.38652291	          0.23725761	          0.25752683	          0.09991936	          0.08307291	          0.11344622	          0.05085072	          0.05000060	          0.10391829	          0.22597950	          0.24349700	          0.15934358	          0.15174427	          0.05000031	          0.05950606	          0.11421686	          0.23094460	          0.17993972	          0.14692234	          0.05000008	          0.05000009	          0.42565528	          0.17851670	          0.19696935	          0.05000008	          0.15194944	          0.16553052	          0.12754954	          0.05000002	          0.05000005	          0.05000000	          0.05000001	          0.05000010	          0.05000010	          0.63465833	          0.30060912	          0.15452008	          0.59483316	          0.55909654	          0.31099471	          0.08755489	          0.09231010	          0.05266152	
